<svg width="40" height="40" viewBox="0 0 40 40" fill="none" xmlns="http://www.w3.org/2000/svg">
<path d="M20 0C8.954 0 0 8.954 0 20C0 28.887 5.801 36.411 13.82 39.016H26.18C34.199 36.411 40 28.887 40 20C40 8.954 31.046 0 20 0Z" fill="white"/>
<path opacity="0.05" d="M26.01 37.996L26 32.198C26 31.259 25.78 30.342 25.358 29.511C30.999 28.378 33.744 25.043 33.744 19.334C33.744 17.079 33.079 15.088 31.768 13.414C31.868 13.097 31.942 12.769 31.988 12.433C32.176 11.064 31.965 10.169 31.795 9.44902L31.768 9.33302C31.582 8.53702 31.359 7.96902 31.35 7.94502L31.239 7.66302L31.128 7.38102L30.826 7.34902L30.523 7.31702C30.523 7.31702 30.324 7.29602 30.022 7.29602C29.603 7.29602 28.982 7.33802 28.395 7.53702L28.199 7.60302C27.459 7.85202 26.76 8.08802 25.782 8.67202C25.496 8.84302 25.183 9.03802 24.848 9.25602C23.334 8.88102 21.705 8.69002 20 8.69002C18.278 8.69002 16.635 8.88202 15.111 9.26102C14.772 9.04102 14.457 8.84402 14.169 8.67202C13.191 8.08802 12.492 7.85302 11.752 7.60302L11.556 7.53702C10.971 7.33802 10.349 7.29602 9.93002 7.29602C9.62802 7.29602 9.42902 7.31702 9.42902 7.31702L9.12702 7.34902L8.82702 7.38002L8.71502 7.66102L8.60202 7.94402C8.59202 7.97002 8.36902 8.53802 8.18302 9.33502L8.15602 9.45002C7.98602 10.169 7.77502 11.065 7.96302 12.433C8.01102 12.779 8.08802 13.118 8.19302 13.444C6.90802 15.11 6.25702 17.09 6.25702 19.334C6.25702 25.029 9.00502 28.362 14.654 29.504C14.46 29.892 14.309 30.302 14.202 30.728C14.005 30.795 13.824 30.84 13.664 30.865C13.426 30.901 13.177 30.919 12.925 30.919C12.239 30.919 11.7 30.785 11.49 30.66C11.177 30.474 10.618 29.933 10.076 29.142C9.61302 28.467 8.89102 27.584 8.08402 27.215C7.38602 26.896 6.64702 26.713 6.05502 26.713C5.91702 26.713 5.79002 26.723 5.67902 26.741C5.16202 26.823 4.73002 27.107 4.49502 27.521C4.29202 27.878 4.26002 28.294 4.40702 28.662C4.62602 29.21 5.25802 29.647 5.75002 29.917C5.99202 30.05 6.51502 30.536 6.82002 31.026C7.04902 31.394 7.15502 31.656 7.30202 32.018C7.38902 32.233 7.48502 32.467 7.61502 32.75C8.08502 33.772 9.55202 34.674 9.71802 34.773C10.524 35.256 11.879 35.411 12.875 35.456L12.998 35.459H12.999C13.239 35.459 13.569 35.436 14.003 35.388V38.001C14.005 38.53 13.466 38.65 12.753 38.639L13.3 38.823C15.395 39.572 17.645 40 20 40C22.355 40 24.605 39.572 26.703 38.824L27.406 38.562C26.695 38.538 26.016 38.422 26.01 37.996Z" fill="white"/>
<path opacity="0.07" d="M26.781 38.797C26.375 38.844 25.5 38.688 25.5 38.002V32.198C25.5 31.104 25.172 30.047 24.564 29.146C30.479 28.189 33.243 25.053 33.243 19.334C33.243 17.097 32.557 15.14 31.204 13.512C31.341 13.147 31.437 12.762 31.492 12.365C31.667 11.089 31.476 10.279 31.308 9.56402L31.281 9.44802C31.103 8.68702 30.893 8.15102 30.884 8.12902L30.773 7.84702L30.47 7.81502C30.47 7.81502 30.292 7.79602 30.021 7.79602C29.64 7.79602 29.077 7.83302 28.555 8.01102L28.359 8.07702C27.645 8.31802 26.97 8.54502 26.038 9.10102C25.706 9.29902 25.336 9.53202 24.937 9.79502C23.404 9.39402 21.745 9.19002 20 9.19002C18.238 9.19002 16.565 9.39502 15.021 9.80002C14.618 9.53502 14.246 9.30102 13.912 9.10102C12.98 8.54502 12.305 8.31702 11.591 8.07702L11.395 8.01102C10.874 7.83402 10.31 7.79602 9.92899 7.79602C9.65799 7.79602 9.47999 7.81502 9.47999 7.81502L9.17799 7.84702L9.06499 8.13002C9.05599 8.15202 8.84599 8.68802 8.66799 9.44902L8.64099 9.56502C8.47199 10.28 8.28099 11.089 8.45699 12.365C8.51299 12.772 8.61299 13.166 8.75499 13.539C7.42799 15.159 6.75599 17.106 6.75599 19.334C6.75599 25.037 9.52199 28.172 15.442 29.14C15.047 29.73 14.771 30.395 14.629 31.104C14.299 31.234 14 31.32 13.738 31.36C13.475 31.4 13.201 31.42 12.924 31.42C12.234 31.42 11.571 31.291 11.234 31.091C10.794 30.83 10.177 30.177 9.66199 29.426C9.31199 28.916 8.61499 28.009 7.87399 27.671C7.23899 27.381 6.57599 27.214 6.05299 27.214C5.94299 27.214 5.84299 27.222 5.75499 27.236C5.38899 27.294 5.08699 27.488 4.92699 27.77C4.79899 27.994 4.77799 28.253 4.86799 28.478C5.04699 28.926 5.70999 29.328 5.98699 29.48C6.32199 29.664 6.90599 30.224 7.24099 30.764C7.49199 31.168 7.61099 31.461 7.76199 31.831C7.84699 32.04 7.93999 32.268 8.06599 32.543C8.39699 33.262 9.41899 34.015 9.97099 34.346C10.725 34.798 12.125 34.924 12.893 34.958L13.004 34.96C13.303 34.96 13.804 34.915 14.499 34.825V38.002C14.499 38.781 13.508 38.812 13.265 38.812C13.234 38.812 13.768 38.996 13.768 38.996C15.731 39.64 17.822 40 20 40C22.178 40 24.269 39.64 26.231 38.997C26.231 38.997 26.812 38.793 26.781 38.797Z" fill="white"/>
<path d="M32.744 19.334C32.744 17.024 31.962 15.108 30.627 13.606C30.772 13.281 30.923 12.845 30.998 12.297C31.17 11.047 30.967 10.297 30.795 9.56302C30.623 8.82902 30.42 8.31302 30.42 8.31302C30.42 8.31302 29.498 8.21902 28.717 8.48502C27.936 8.75102 27.264 8.95402 26.295 9.53202C25.842 9.80202 25.386 10.098 25.025 10.338C23.482 9.91002 21.785 9.69002 20 9.69002C18.199 9.69002 16.487 9.91102 14.933 10.342C14.571 10.101 14.112 9.80302 13.656 9.53102C12.687 8.95302 12.015 8.75002 11.234 8.48402C10.453 8.21802 9.53104 8.31202 9.53104 8.31202C9.53104 8.31202 9.32804 8.82802 9.15604 9.56202C8.98404 10.296 8.78104 11.046 8.95304 12.296C9.03004 12.858 9.18604 13.302 9.33504 13.629C8.02504 15.122 7.25704 17.026 7.25704 19.333C7.25704 25.316 10.489 28.047 16.378 28.768C15.691 29.494 15.23 30.424 15.075 31.459C14.688 31.629 14.242 31.789 13.813 31.853C12.709 32.02 11.542 31.853 10.98 31.52C10.418 31.187 9.75104 30.437 9.25104 29.707C8.82904 29.091 8.22004 28.376 7.66804 28.124C6.93904 27.791 6.23004 27.666 5.83504 27.728C5.43904 27.791 5.25204 28.082 5.33504 28.291C5.41804 28.499 5.81404 28.812 6.23104 29.041C6.64804 29.27 7.29404 29.895 7.66904 30.499C8.08704 31.173 8.16904 31.562 8.52304 32.332C8.77204 32.874 9.62404 33.551 10.231 33.915C10.752 34.228 11.793 34.406 12.919 34.457C13.308 34.475 14.227 34.361 15.002 34.251V38.001C15.002 38.64 14.417 39.126 13.811 39.014C15.756 39.668 17.833 40 20 40C22.166 40 24.243 39.668 26.19 39.016C25.585 39.127 25 38.641 25 38.002V32.198C25 30.869 24.473 29.668 23.627 28.773C29.473 28.071 32.744 25.405 32.744 19.334ZM7.23904 28.727C7.08504 28.648 7.00204 28.502 7.05404 28.399C7.10604 28.296 7.27404 28.277 7.42804 28.356C7.58204 28.435 7.66504 28.581 7.61304 28.684C7.56104 28.787 7.39304 28.806 7.23904 28.727ZM8.45104 29.482C8.37004 29.57 8.19604 29.542 8.06204 29.42C7.92804 29.298 7.88504 29.127 7.96604 29.039C8.04704 28.951 8.22104 28.979 8.35504 29.101C8.48904 29.223 8.53204 29.394 8.45104 29.482ZM9.20504 30.732C9.10304 30.804 8.93004 30.737 8.81904 30.582C8.70804 30.427 8.70104 30.242 8.80304 30.17C8.90504 30.098 9.07804 30.165 9.18904 30.32C9.29904 30.475 9.30704 30.66 9.20504 30.732ZM10.288 31.673C10.219 31.785 10.023 31.79 9.85104 31.685C9.67904 31.58 9.59504 31.404 9.66404 31.292C9.73304 31.18 9.92904 31.175 10.101 31.28C10.273 31.385 10.357 31.561 10.288 31.673ZM11.312 32.594C11.099 32.568 10.941 32.435 10.959 32.297C10.976 32.159 11.163 32.069 11.375 32.095C11.588 32.121 11.746 32.254 11.728 32.392C11.711 32.529 11.525 32.62 11.312 32.594ZM12.963 32.833C12.736 32.82 12.559 32.69 12.568 32.544C12.577 32.398 12.768 32.289 12.995 32.302C13.222 32.315 13.399 32.445 13.39 32.591C13.381 32.738 13.19 32.846 12.963 32.833ZM14.521 32.677C14.279 32.677 14.083 32.551 14.083 32.396C14.083 32.241 14.279 32.115 14.521 32.115C14.763 32.115 14.959 32.241 14.959 32.396C14.959 32.551 14.762 32.677 14.521 32.677Z" fill="#333333"/>
</svg>
