<svg width="40" height="40" viewBox="0 0 40 40" fill="none" xmlns="http://www.w3.org/2000/svg">
<path d="M19.5 39C30.2696 39 39 30.2696 39 19.5C39 8.73045 30.2696 0 19.5 0C8.73045 0 0 8.73045 0 19.5C0 30.2696 8.73045 39 19.5 39Z" fill="#333333"/>
<path d="M19.5122 14.625C18.548 14.625 17.6054 14.9109 16.8037 15.4465C16.0021 15.9822 15.3773 16.7436 15.0084 17.6344C14.6394 18.5252 14.5428 19.5054 14.7309 20.4511C14.919 21.3967 15.3833 22.2653 16.0651 22.9471C16.7469 23.6289 17.6154 24.0932 18.5611 24.2813C19.5067 24.4694 20.487 24.3729 21.3778 24.0039C22.2686 23.6349 23.03 23.01 23.5656 22.2084C24.1013 21.4067 24.3872 20.4642 24.3872 19.5C24.3872 18.2071 23.8736 16.9671 22.9594 16.0529C22.0452 15.1386 20.8051 14.625 19.5122 14.625ZM19.5122 22.6687C18.8854 22.6687 18.2728 22.4829 17.7517 22.1347C17.2306 21.7865 16.8244 21.2916 16.5846 20.7126C16.3448 20.1336 16.282 19.4965 16.4043 18.8818C16.5266 18.2671 16.8283 17.7025 17.2715 17.2593C17.7147 16.8162 18.2793 16.5144 18.894 16.3921C19.5087 16.2699 20.1458 16.3326 20.7248 16.5725C21.3038 16.8123 21.7988 17.2184 22.1469 17.7395C22.4951 18.2606 22.6809 18.8733 22.6809 19.5C22.6825 19.9166 22.6017 20.3294 22.443 20.7145C22.2843 21.0997 22.051 21.4496 21.7564 21.7442C21.4618 22.0388 21.1119 22.2721 20.7268 22.4308C20.3416 22.5894 19.9287 22.6704 19.5122 22.6687ZM25.7156 14.43C25.718 14.6576 25.6526 14.8807 25.5277 15.071C25.4027 15.2612 25.2239 15.41 25.0141 15.4982C24.8043 15.5864 24.5729 15.6101 24.3495 15.5663C24.1262 15.5225 23.9209 15.4131 23.7599 15.2522C23.599 15.0912 23.4897 14.886 23.4459 14.6627C23.4021 14.4393 23.4258 14.2079 23.514 13.9981C23.6022 13.7883 23.7509 13.6095 23.9411 13.4845C24.1314 13.3596 24.3546 13.2941 24.5822 13.2965V13.2965C24.8807 13.2965 25.1671 13.4143 25.3793 13.6242C25.5915 13.8342 25.7124 14.1193 25.7156 14.4178V14.43ZM28.9453 15.6487C28.9801 14.9145 28.8611 14.1811 28.596 13.4955C28.3308 12.81 27.9254 12.1873 27.4056 11.6676C26.8859 11.1478 26.2632 10.7423 25.5776 10.4771C24.8921 10.212 24.1587 10.0931 23.4245 10.1278C21.8523 10.0425 17.1478 10.0425 15.5878 10.1278C14.8542 10.0913 14.1211 10.2086 13.4355 10.4724C12.75 10.7361 12.1271 11.1404 11.6071 11.6592C11.0871 12.1781 10.6814 12.8 10.4162 13.485C10.1509 14.1699 10.0319 14.9028 10.0669 15.6365C9.98154 17.2087 9.98154 21.9131 10.0669 23.4853C10.0319 24.219 10.1509 24.9519 10.4162 25.6369C10.6814 26.3219 11.0871 26.9438 11.6071 27.4626C12.1271 27.9814 12.75 28.3857 13.4355 28.6494C14.1211 28.9132 14.8542 29.0306 15.5878 28.9941C17.1478 29.0794 21.8523 29.0794 23.4245 28.9941C24.8995 29.0262 26.3274 28.4742 27.3974 27.4584C28.4106 26.3818 28.9618 24.9512 28.9331 23.4731C29.0184 21.9131 29.0184 17.2087 28.9331 15.6487H28.9453ZM26.9223 25.1672C26.7591 25.5761 26.5137 25.9471 26.2013 26.2574C25.889 26.5676 25.5162 26.8105 25.1062 26.9709C23.2676 27.3523 21.3854 27.4794 19.5122 27.3487C17.6349 27.4733 15.7495 27.3462 13.9059 26.9709C13.4978 26.8097 13.1272 26.5664 12.8169 26.2562C12.5067 25.9459 12.2634 25.5753 12.1022 25.1672C11.7209 23.3244 11.5937 21.4382 11.7243 19.5609C11.6002 17.6837 11.7273 15.7982 12.1022 13.9546C12.2653 13.5476 12.5091 13.178 12.8192 12.8679C13.1292 12.5579 13.4989 12.314 13.9059 12.1509C15.7495 11.7756 17.6349 11.6485 19.5122 11.7731C21.3854 11.655 23.2659 11.782 25.1062 12.1509C25.5151 12.3141 25.8863 12.5594 26.1965 12.8718C26.5068 13.1842 26.7496 13.5569 26.9101 13.9668C27.4138 17.6833 27.4138 21.4507 26.9101 25.1672H26.9223Z" fill="white"/>
</svg>
