<svg width="40" height="40" viewBox="0 0 40 40" fill="none" xmlns="http://www.w3.org/2000/svg">
<path d="M20 40C31.0457 40 40 31.0457 40 20C40 8.9543 31.0457 0 20 0C8.9543 0 0 8.9543 0 20C0 31.0457 8.9543 40 20 40Z" fill="white"/>
<path d="M20.0125 15C19.0236 15 18.0568 15.2932 17.2346 15.8426C16.4124 16.392 15.7716 17.1729 15.3932 18.0866C15.0147 19.0002 14.9157 20.0055 15.1086 20.9754C15.3015 21.9454 15.7777 22.8362 16.477 23.5355C17.1763 24.2348 18.0671 24.711 19.037 24.9039C20.0069 25.0968 21.0123 24.9978 21.9259 24.6194C22.8395 24.241 23.6205 23.6001 24.1699 22.7778C24.7193 21.9556 25.0125 20.9889 25.0125 20C25.0125 18.6739 24.4858 17.4022 23.5481 16.4645C22.6104 15.5268 21.3385 15 20.0125 15ZM20.0125 23.25C19.3697 23.25 18.7413 23.0594 18.2069 22.7023C17.6724 22.3452 17.2558 21.8376 17.0098 21.2437C16.7639 20.6498 16.6995 19.9964 16.8249 19.3659C16.9503 18.7355 17.2598 18.1564 17.7143 17.7019C18.1689 17.2474 18.748 16.9379 19.3785 16.8125C20.0089 16.6871 20.6623 16.7514 21.2562 16.9974C21.8501 17.2434 22.3577 17.6599 22.7148 18.1944C23.0719 18.7288 23.2624 19.3572 23.2624 20C23.2641 20.4273 23.1812 20.8506 23.0184 21.2457C22.8557 21.6407 22.6164 21.9996 22.3143 22.3017C22.0121 22.6039 21.6532 22.8432 21.2582 23.0059C20.8631 23.1687 20.4397 23.2517 20.0125 23.25ZM26.3749 14.8C26.3774 15.0334 26.3104 15.2623 26.1822 15.4574C26.054 15.6525 25.8707 15.8051 25.6555 15.8956C25.4403 15.986 25.2029 16.0104 24.9739 15.9655C24.7448 15.9205 24.5342 15.8083 24.3692 15.6433C24.2041 15.4782 24.092 15.2677 24.047 15.0386C24.0021 14.8095 24.0264 14.5722 24.1169 14.357C24.2074 14.1418 24.3599 13.9584 24.555 13.8303C24.7501 13.7021 24.9791 13.635 25.2125 13.6375V13.6375C25.5187 13.6375 25.8124 13.7583 26.0301 13.9736C26.2477 14.1889 26.3716 14.4813 26.3749 14.7875V14.8ZM29.6874 16.05C29.7231 15.2969 29.6011 14.5447 29.3292 13.8416C29.0572 13.1384 28.6414 12.4998 28.1083 11.9667C27.5752 11.4336 26.9366 11.0177 26.2335 10.7458C25.5303 10.4739 24.7781 10.3519 24.0251 10.3875C22.4126 10.3 17.5875 10.3 15.9875 10.3875C15.2351 10.3501 14.4832 10.4704 13.78 10.7409C13.0769 11.0114 12.438 11.4261 11.9047 11.9582C11.3714 12.4903 10.9553 13.1282 10.6832 13.8307C10.4112 14.5333 10.2892 15.2849 10.325 16.0375C10.2375 17.65 10.2375 22.475 10.325 24.0875C10.2892 24.84 10.4112 25.5917 10.6832 26.2943C10.9553 26.9968 11.3714 27.6346 11.9047 28.1668C12.438 28.6989 13.0769 29.1135 13.78 29.384C14.4832 29.6545 15.2351 29.775 15.9875 29.7375C17.5875 29.825 22.4126 29.825 24.0251 29.7375C25.5379 29.7704 27.0024 29.2043 28.0999 28.1625C29.139 27.0582 29.7044 25.591 29.6749 24.075C29.7624 22.475 29.7624 17.65 29.6749 16.05H29.6874ZM27.6126 25.8125C27.4452 26.2319 27.1935 26.6124 26.8731 26.9306C26.5528 27.2489 26.1704 27.4979 25.7499 27.6625C23.8642 28.0536 21.9337 28.184 20.0125 28.05C18.0871 28.1778 16.1533 28.0474 14.2625 27.6625C13.8439 27.4971 13.4638 27.2476 13.1456 26.9294C12.8273 26.6112 12.5778 26.2311 12.4125 25.8125C12.0214 23.9225 11.891 21.9879 12.0249 20.0625C11.8976 18.1371 12.028 16.2033 12.4125 14.3125C12.5798 13.895 12.8299 13.5159 13.1478 13.1979C13.4658 12.8799 13.8451 12.6297 14.2625 12.4625C16.1533 12.0775 18.0871 11.9472 20.0125 12.075C21.9337 11.9539 23.8624 12.0841 25.7499 12.4625C26.1693 12.6299 26.55 12.8815 26.8682 13.2019C27.1864 13.5222 27.4355 13.9045 27.6 14.325C28.1167 18.1367 28.1167 22.0007 27.6 25.8125H27.6126Z" fill="#333333"/>
</svg>
