<svg width="40" height="40" viewBox="0 0 40 40" fill="none" xmlns="http://www.w3.org/2000/svg">
<path d="M20 40C31.0457 40 40 31.0457 40 20C40 8.9543 31.0457 0 20 0C8.9543 0 0 8.9543 0 20C0 31.0457 8.9543 40 20 40Z" fill="white"/>
<path d="M28.3875 16.575C28.3875 16.7625 28.3875 16.9375 28.3875 17.1125C28.3974 18.6621 28.102 20.1986 27.5181 21.634C26.9342 23.0694 26.0731 24.3758 24.9844 25.4785C23.8956 26.5812 22.6003 27.4586 21.1724 28.0607C19.7445 28.6628 18.2121 28.9777 16.6625 28.9875H16.5125C14.24 28.9992 12.0127 28.3523 10.1 27.125C10.4331 27.1441 10.7669 27.1441 11.0999 27.125C12.9806 27.1276 14.8076 26.4981 16.2875 25.3375C15.4171 25.3245 14.5728 25.0389 13.8732 24.5209C13.1737 24.0029 12.654 23.2787 12.3875 22.45C12.6481 22.4905 12.9113 22.5114 13.175 22.5125C13.5467 22.5119 13.9167 22.4614 14.275 22.3625C13.3297 22.1744 12.479 21.6641 11.8681 20.9187C11.2571 20.1732 10.9238 19.2389 10.9249 18.2751V18.2125C11.5023 18.5396 12.1494 18.7239 12.8124 18.7501C11.9336 18.1515 11.3155 17.241 11.0833 16.2033C10.8512 15.1657 11.0225 14.0785 11.5624 13.1626C12.6118 14.454 13.9207 15.5107 15.4043 16.2644C16.8879 17.018 18.5131 17.4517 20.175 17.5376C19.9695 16.6419 20.0643 15.7035 20.4449 14.867C20.8254 14.0306 21.4706 13.3426 22.2808 12.909C23.0911 12.4755 24.0213 12.3205 24.9284 12.468C25.8354 12.6154 26.6689 13.0572 27.3 13.7251C28.2336 13.5375 29.1293 13.1953 29.95 12.7126C29.6351 13.6758 28.9824 14.4927 28.1124 15.0125C28.9401 14.9156 29.749 14.6966 30.5125 14.3626C29.9356 15.2159 29.2169 15.9642 28.3875 16.575Z" fill="#333333"/>
</svg>
